<svg id="svg9569" xmlns="http://www.w3.org/2000/svg" viewBox="0 0 112 197" version="1.1">
<path fill="#000" d="M28.746858,190.31911c-2.06424-0.54821-5.96125-2.98199-8.66-5.4084-8.35859-7.51509-8.08764-5.04017-8.08125-73.8163,0.00378-40.724811,0.36116-61.360125,1.10966-64.071864,1.62741-5.895972,10.23613-14.212739,15.59939-15.070358l4.10504-0.656423,0.34016-9.784013c0.40135-11.543881,1.77182-13.989206,7.84017-13.989206,5.92053,0,7,2.0343783,7,13.192251v9.53477l17.25,0.480759c14.91773,0.415758,17.80004,0.762431,21.31821,2.564073,5.34881,2.739099,11.03515,9.137494,12.35966,13.907368,0.69348,2.49737,1.06291,24.627961,1.06655,63.892643,0.006392,68.74424,0.272472,66.30559-8.05124,73.78932-3.08203,2.77101-6.5241,4.79947-9.35282,5.51175-5.54889,1.39723-48.52429,1.33627-53.84353-0.07637zm61.05317-95.996564c1.26794-1.267946,1.80298-42.065092,0.59301-45.218213-0.53667-1.398545-4.463-1.581787-33.89301-1.581787s-33.35634,0.183242-33.89301,1.581787c-1.20997,3.153121-0.67494,43.950267,0.59301,45.218213,1.71703,1.71703,64.88297,1.71703,66.6,0z"/>
</svg>
