<svg xmlns="http://www.w3.org/2000/svg" viewBox="0 0 90.681 129.84331" version="1.1" >
<path fill-rule="evenodd" fill="#000" d="M26.3695,34.5808,26.369431,2.097268a35,35,0,0,0,-25.995402,30.831887l0.000053-0.000011a100,100,0,0,0,42.329152,90.599356l0.000098,0.00003a35,35,0,0,0,40.327928,-0.15521l-24.91496-20.84302-3.397385,1.58734a10,10,0,0,1,-13.29285,-4.82702l-23.2811-49.829605a10,10,0,0,1,4.82702,-13.29285l3.397515-1.587365zm5,1.8426,0-36.4234,10,4.6721,0,27.0792-10,4.6721zm28.5418,61.0896,27.9368,23.3711,2.8329-10.6679-20.7697-17.3753-10,4.6721z"/>
</svg>
