<!-- Created with Inkscape (http://www.inkscape.org/) -->
<svg  xmlns="http://www.w3.org/2000/svg" viewBox="0 0 83.541222 85.670959" version="1.1" >
<g id="layer1" transform="translate(-163.82485,-265.4736)">
<g id="g4983" stroke="#000080" stroke-miterlimit="4" stroke-dasharray="none" stroke-width="4" fill="none">
<path id="path3620" stroke-linejoin="miter" d="m189.15106,271.00919c-16.36395,25.82487-6.13124,67.60133,24.74864,77.07478" stroke-linecap="butt"/>
<path id="path3935" stroke-linejoin="miter" d="m189.15107,271.00919c32.09573,2.85285,48.39693,40.97575,41.01228,69.29646" stroke-linecap="butt"/>
<path id="path4227" stroke-linejoin="miter" d="m188.79751,271.00919,33.94113,74.24621" stroke-linecap="butt"/>
<path id="path4229" stroke-linejoin="miter" d="m171.11984,287.97975c16.74685,8.85302,37.73485-2.8244,44.54772-19.09171" stroke-linecap="butt"/>
<path id="path4231" stroke-linejoin="miter" d="m166.52364,306.01098c24.60224,7.89225,54.44926-4.40807,65.05383-28.28428" stroke-linecap="butt"/>
<path id="path4233" stroke-linejoin="miter" d="m169.70563,325.80996c27.65718,6.82915,61.50704-5.53724,72.47844-33.23398" stroke-linecap="butt"/>
<path id="path4750" d="m244.6504,308.66263c0,22.55287-17.80394,40.83558-39.76621,40.83558-21.96228,0-39.76622-18.28271-39.76622-40.83558s17.80394-40.83558,39.76622-40.83558c21.78699,0,39.51748,18.0027,39.76367,40.37415" transform="matrix(0.99992372,-0.01235137,0.01235137,0.99992372,-3.0896711,2.2005923)"/>
<path id="path4235" stroke-linejoin="miter" d="m180.66579,340.30565c24.57844,8.65261,55.43914-4.1511,64.70028-28.99143" stroke-linecap="butt"/>
</g>
</g>
</svg>
