<!-- Created with Inkscape (http://www.inkscape.org/) -->
<svg id="svg1" xmlns:rdf="http://www.w3.org/1999/02/22-rdf-syntax-ns#" xmlns="http://www.w3.org/2000/svg" height="80pt" width="80pt" version="1.1" xmlns:cc="http://creativecommons.org/ns#" xmlns:dc="http://purl.org/dc/elements/1.1/">
<defs id="defs3">
<radialGradient id="radialGradient915">
<stop id="stop913" stop-color="#FFF" offset="0"/>
<stop id="stop914" stop-color="#FFF" stop-opacity="0" offset="1"/>
</radialGradient>
</defs>
<g id="g916" fill-rule="evenodd">
<path id="path910" stroke-linejoin="round" d="m68.563,51.18c0,11.889-9.649,21.538-21.538,21.538s-21.538-9.649-21.538-21.538,9.649-21.538,21.538-21.538,21.538,9.649,21.538,21.538z" fill-opacity=".98077" transform="matrix(.96493 0 0 .94588 4.5275 -.75584)" stroke-width="1.3084" fill="#FB0"/>
<path id="path854" d="m47.529,16.162c-1.631,3.452,2.325,8.671,5.419,4.753,1.193-3.41,0.346-7.149,0.749-10.695,0.791-3.0987-0.442-5.5867-3.88-5.9562-1.99,0.3901-1.724,7.8582-2.288,11.898z" fill-opacity=".98077" fill="#FB0"/>
<path id="path855" d="m25.351,9.628c-1.173,0.037-2.219,0.739-2.678,1.798-0.46,1.06-0.25,2.284,0.537,3.138,0,0,2.45,2.713,10.072,11.203,0.694,0.849,1.809,1.256,2.901,1.058s1.984-0.968,2.323-2.004c0.339-1.037,0.07-2.172-0.701-2.956-7.619-8.487-10.041-11.202-10.041-11.202-0.6-0.6893-1.489-1.0706-2.413-1.035z" fill-opacity=".98077" fill="#FB0"/>
<path id="path870" d="m10.606,24.851c-0.312,1.094-0.7464,2.9,1.058,3.595,4.149,2.767,8.959,3.979,14.045,6.04,1.956,0.767,4.209-1.007,3.993-3.029-0.092-1.92-2.154-2.717-3.732-3.255-3.962-1.616-8.02-2.995-12.063-4.403-1.196-0.12-2.325,0.437-3.301,1.052z" fill-opacity=".98077" fill="#FB0"/>
<path id="path873" d="m6.4752,46.865c0.1294,1.377-0.6018,2.966,0.7108,3.773,2.7443,0.897,9.268,0.865,14.202,0.914,2.391-0.185,3.556-3.508,1.713-5.053-1.418-1.321-3.48-0.727-5.228-0.912-2.051-0.045-11.84-0.375-11.398,1.278z" fill-opacity=".98077" fill="#FB0"/>
<path id="path858" d="m25.11,56.834c-0.474,0.011-0.939,0.133-1.357,0.354-5.704,2.881-8.627,4.323-10.101,5.025-0.688,0.327-1.014,0.462-1.176,0.532-0.012,0.005-0.081,0.026-0.091,0.03-1.417,0.457-2.28,1.86-2.031,3.301,0.249,1.442,1.535,2.489,3.026,2.463,0,0,0.396-0.009,0.513-0.03,0.116-0.02,0.207-0.042,0.271-0.059,0.129-0.034,0.204-0.065,0.272-0.089,0.134-0.047,0.221-0.087,0.361-0.147,0.281-0.12,0.7-0.31,1.478-0.68,1.556-0.741,4.526-2.193,10.252-5.084,1.284-0.608,1.958-2.015,1.616-3.372s-1.608-2.293-3.033-2.244z" fill-opacity=".98077" fill="#FB0"/>
<path id="path859" d="m33.734,68.036c-0.774,0.027-1.508,0.344-2.05,0.887-5.184,5.082-7.8,7.55-9.047,8.69-0.485,0.445-0.601,0.548-0.723,0.651-0.005,0.004-0.026,0.025-0.03,0.029-0.925,0.538-1.488,1.518-1.478,2.572l0.121,0.887,0.693,1.123,1.176,0.768c0.001,0.001,1.025,0.178,1.025,0.178,0.001,0,0.472-0.026,0.634-0.059,0.161-0.034,0.261-0.083,0.362-0.119,0.202-0.07,0.325-0.126,0.422-0.177,0.388-0.203,0.458-0.271,0.603-0.384,0.29-0.228,0.651-0.535,1.327-1.153,1.351-1.236,3.959-3.704,9.166-8.809,0.901-0.849,1.174-2.156,0.685-3.284-0.488-1.129-1.636-1.844-2.886-1.8z" fill-opacity=".98077" fill="#FB0"/>
<path id="path860" d="m51.013,71.761c-0.8,0.031-1.555,0.372-2.098,0.949-0.543,0.576-0.83,1.341-0.797,2.125,0.125,5.017-1.024,11.079,0.53,13.142,1.791,0.78,2.817,0.691,2.817,0.691l2.418-0.839c0.597-1.95,0.612-5.071,0.266-13.142-0.008-0.8-0.346-1.562-0.937-2.114-0.591-0.551-1.384-0.844-2.199-0.812z" fill-opacity=".98077" fill="#FB0"/>
<path id="path861" d="m66.391,69.721c-1.117-0.016-2.151,0.574-2.688,1.535-0.538,0.96-0.489,2.132,0.125,3.047,3.154,4.809,4.913,7.188,6.031,8.483,0.559,0.648,0.938,1.024,1.447,1.389,0.255,0.183,0.532,0.376,1.056,0.533,0.261,0.078,0.597,0.157,0.995,0.147,0.198-0.005,0.414-0.037,0.633-0.088,0.219-0.052,0.633-0.237,0.633-0.237,1.019-0.483,1.676-1.485,1.702-2.594,0.025-1.11-0.585-2.14-1.581-2.667-0.023-0.024,0-0.011-0.272-0.325-0.786-0.912-2.497-3.135-5.578-7.834-0.541-0.848-1.483-1.371-2.503-1.389z" fill-opacity=".98077" fill="#FB0"/>
<path id="path862" d="m75.679,58.548c-1.329,0.149-2.399,1.137-2.629,2.429-0.23,1.291,0.435,2.576,1.633,3.158,3.491,1.765,7.812,5.214,10.705,4.658,2.394-0.453,2.599-2.077,2.407-3.701-0.398-1.56-1.788-2.346-10.337-6.219-0.545-0.284-1.166-0.398-1.779-0.325z" fill-opacity=".98077" fill="#FB0"/>
<path id="path863" d="m91.962,43.562c-0.33,0.007-0.656,0.067-0.965,0.177-0.191,0.018-0.38,0.029-1.056,0.059-1.814,0.081-5.579,0.148-13.177,0.148-1.087-0.015-2.099,0.545-2.647,1.466-0.548,0.92-0.548,2.059,0,2.98s1.56,1.481,2.647,1.466c7.643,0,11.453-0.089,13.449-0.178,0.998-0.044,1.544-0.062,1.96-0.118,0.208-0.028,0.347-0.04,0.693-0.148,0.173-0.054,0.399-0.106,0.815-0.384,0.104-0.07,0.232-0.179,0.361-0.296,0.13-0.117,0.422-0.443,0.423-0.443l0.361-0.739c0.001,0,0.181-0.975,0.181-0.975,0.017-0.8-0.298-1.571-0.872-2.139s-1.358-0.884-2.173-0.876z" fill-opacity=".98077" fill="#FB0"/>
<path id="path864" d="m90.973,27.978c-3.183,0-3.184-0.191-14.601,2.814-1.085,0.217-1.961,0.999-2.282,2.038-0.322,1.038-0.038,2.166,0.741,2.937,0.779,0.772,1.926,1.063,2.989,0.76,5.22-1.248,13.699-2.75,14.003-4.54,1.507-1.532,0.229-2.673-0.85-4.009z" fill-opacity=".98077" fill="#FB0"/>
<path id="path865" d="m75.992,10.633c-1.791,0.975-3.973,2.939-9.752,11.262-0.899,1.379-0.487,3.212,0.92,4.094,1.407,0.881,3.277,0.478,4.176-0.902,2.949-4.524,7.449-9.762,7.828-11.627-0.262-1.527-1.717-2.665-3.172-2.827z" fill-opacity=".98077" fill="#FB0"/>
<path id="path911" fill="url(#radialGradient915)" d="m58.218,41.782c0,6.607-5.606,11.97-12.514,11.97s-12.514-5.363-12.514-11.97c0-6.608,5.606-11.97,12.514-11.97s12.514,5.362,12.514,11.97z"/>
</g>
<metadata id="metadata23">
<rdf:RDF>
<cc:Work>
<dc:format>image/svg+xml</dc:format>
<dc:type rdf:resource="http://purl.org/dc/dcmitype/StillImage"/>
<cc:license rdf:resource="http://creativecommons.org/licenses/publicdomain/"/>
<dc:publisher>
<cc:Agent rdf:about="http://openclipart.org/">
<dc:title>Openclipart</dc:title>
</cc:Agent>
</dc:publisher>
<dc:title/>
<dc:date>2009-03-09T13:48:16</dc:date>
<dc:description>A bright sun</dc:description>
<dc:source>https://openclipart.org/detail/22012/weather-symbols:-sun-by-nicubunu</dc:source>
<dc:creator>
<cc:Agent>
<dc:title>nicubunu</dc:title>
</cc:Agent>
</dc:creator>
<dc:subject>
<rdf:Bag>
<rdf:li>meteorology</rdf:li>
<rdf:li>sun</rdf:li>
<rdf:li>symbol</rdf:li>
<rdf:li>weather</rdf:li>
</rdf:Bag>
</dc:subject>
</cc:Work>
<cc:License rdf:about="http://creativecommons.org/licenses/publicdomain/">
<cc:permits rdf:resource="http://creativecommons.org/ns#Reproduction"/>
<cc:permits rdf:resource="http://creativecommons.org/ns#Distribution"/>
<cc:permits rdf:resource="http://creativecommons.org/ns#DerivativeWorks"/>
</cc:License>
</rdf:RDF>
</metadata>
<metadata id="metadata25">
<rdf:RDF>
<cc:Work rdf:about="">
<dc:title>Clipart by Nicu Buculei - w_cloud</dc:title>
<dc:rights>
<cc:Agent>
<dc:title>Nicu Buculei</dc:title>
</cc:Agent>
</dc:rights>
<dc:type rdf:resource="http://purl.org/dc/dcmitype/StillImage"/>
<cc:license rdf:resource="http://web.resource.org/cc/PublicDomain"/>
</cc:Work>
<cc:License rdf:about="http://web.resource.org/cc/PublicDomain">
<cc:permits rdf:resource="http://web.resource.org/cc/Reproduction"/>
<cc:permits rdf:resource="http://web.resource.org/cc/Distribution"/>
<cc:permits rdf:resource="http://web.resource.org/cc/DerivativeWorks"/>
</cc:License>
</rdf:RDF>
</metadata>
</svg>
